<svg width="16" height="16" viewBox="0 0 16 16" fill="none" xmlns="http://www.w3.org/2000/svg">
    <g clip-path="url(#clip0_301_17848)"><path d="M16 8.07498V5.68998H9.81004L9.16004 4.23498C8.79504 3.41498 7.20004 3.41498 6.83504 4.23498L6.18504 5.68498H3.66634e-05V8.07498C-0.00996334 8.34497 0.145037 8.61998 0.505037 8.80998L3.97504 10.64L3.87504 10.86L2.58504 11.525V13.875C2.57004 14.56 3.67504 15.045 4.52504 14.6L7.99504 12.77L11.465 14.6C12.315 15.05 13.42 14.565 13.405 13.875V11.49L12.04 10.69L12.015 10.64L15.485 8.80998C15.845 8.61998 16 8.34497 15.99 8.07498H16Z" fill="#E8003E"></path><path d="M9.16004 1.83998L10.485 4.80498H14.77C15.955 4.80498 16.445 5.90498 15.49 6.41498L12.02 8.24498L13.345 11.21C13.71 12.03 12.42 12.71 11.465 12.205L7.99504 10.375L4.52504 12.205C3.56504 12.71 2.28004 12.03 2.64504 11.21L3.97004 8.24498L0.500037 6.41498C-0.459963 5.90998 0.0350368 4.80498 1.22004 4.80498H5.50504L6.83004 1.83998C7.19504 1.01998 8.79004 1.01998 9.15504 1.83998H9.16004Z" fill="#FA4270"></path><path d="M12.9 6.52998C12.77 6.45498 12.6 6.40498 12.4 6.40498H9.62004L8.76004 4.47998C8.52504 3.94998 7.49004 3.94998 7.25004 4.47998L6.39004 6.40498H3.60504C3.40504 6.40498 3.23504 6.45498 3.10504 6.53498C2.52504 6.19998 2.85004 5.50998 3.60504 5.50998H6.39004L7.25004 3.57998C7.48504 3.04998 8.52004 3.04998 8.76004 3.57998L9.62004 5.50998H12.4C13.16 5.50998 13.48 6.19998 12.9 6.52998Z" fill="#E8003E"></path><path d="M11.475 9.66498L10.94 8.46998L10.61 7.74498V8.64498L11.315 10.225C11.485 10.09 11.565 9.88998 11.47 9.66998L11.475 9.66498Z" fill="#E8003E"></path><path d="M5.06004 8.46998L4.52504 9.66498C4.43004 9.88498 4.51004 10.085 4.68004 10.22L5.38504 8.63998V7.73998L5.06004 8.46998Z" fill="#E8003E"></path></g><defs><clipPath id="clip0_301_17848"><rect width="16" height="16" fill="white"></rect></clipPath></defs>
</svg>