<svg width="16" height="16" viewBox="0 0 16 16" fill="none" xmlns="http://www.w3.org/2000/svg">
  <path d="M15.285 6.63161C14.03 4.33516 11.24 2.73624 8 2.73624C4.76 2.73624 1.97 4.33516 0.715 6.63161H0V9.36802C0 13.0327 3.58 15.9998 8 15.9998C12.42 15.9998 16 13.0327 16 9.36802V6.63161H15.285Z" fill="#FF5008"/>
  <path d="M8 13.2634C12.4183 13.2634 16 10.2942 16 6.63161C16 2.96897 12.4183 -0.000183105 8 -0.000183105C3.58172 -0.000183105 0 2.96897 0 6.63161C0 10.2942 3.58172 13.2634 8 13.2634Z" fill="#FFC800"/>
  <path d="M14.015 6.63161C14.015 6.8194 14 6.99646 13.98 7.17353C13.655 4.67856 11.1 2.73624 8.005 2.73624C4.91 2.73624 2.355 4.67856 2.03 7.17353C2.005 6.99646 1.995 6.81404 1.995 6.63161C1.995 3.87909 4.685 1.64703 8.01 1.64703C11.335 1.64703 14.025 3.87909 14.025 6.63161H14.015Z" fill="#FF5008"/>
  <path d="M9.24 4.142V9.64703H7.44V5.52094H7.4L5.95 6.23992V4.97366L7.58 4.14737H9.24V4.142Z" fill="#FF5008"/>
</svg>