<svg width="16" height="16" viewBox="0 0 16 16" fill="none" xmlns="http://www.w3.org/2000/svg">
    <g clip-path="url(#clip0_301_17850)"><path d="M16 8.07498V5.68998H9.80997L9.15996 4.23498C8.79496 3.41498 7.19997 3.41498 6.83497 4.23498L6.18497 5.68498H-3.48427e-05V8.07498C-0.0100348 8.34497 0.144965 8.61998 0.504965 8.80998L3.97497 10.64L3.87497 10.86L2.58497 11.525V13.875C2.56997 14.56 3.67497 15.045 4.52497 14.6L7.99497 12.77L11.465 14.6C12.315 15.05 13.42 14.565 13.405 13.875V11.49L12.04 10.69L12.015 10.64L15.485 8.80998C15.845 8.61998 16 8.34497 15.99 8.07498H16Z" fill="#FF5008"></path><path d="M9.16497 1.83998L10.49 4.80498H14.78C15.965 4.80498 16.455 5.90498 15.5 6.41498L12.03 8.24498L13.355 11.21C13.72 12.03 12.43 12.71 11.475 12.205L8.00497 10.375L4.53496 12.205C3.57496 12.71 2.28997 12.03 2.65497 11.21L3.97997 8.24498L0.509965 6.41498C-0.450035 5.90998 0.0449653 4.80498 1.22997 4.80498H5.51996L6.84496 1.83998C7.20996 1.01998 8.80497 1.01998 9.16997 1.83998H9.16497Z" fill="#FFC800"></path><path d="M12.9 6.52998C12.77 6.45498 12.6 6.40498 12.4 6.40498H9.61997L8.75997 4.47998C8.52497 3.94998 7.48996 3.94998 7.24997 4.47998L6.38997 6.40498H3.60497C3.40497 6.40498 3.23497 6.45498 3.10497 6.53498C2.52497 6.19998 2.84997 5.50998 3.60497 5.50998H6.38997L7.24997 3.57998C7.48497 3.04998 8.51997 3.04998 8.75997 3.57998L9.61997 5.50998H12.4C13.16 5.50998 13.48 6.19998 12.9 6.52998Z" fill="#FF5008"></path><path d="M11.475 9.66498L10.94 8.46998L10.61 7.73998V8.63998L11.315 10.22C11.485 10.085 11.565 9.88498 11.47 9.66498H11.475Z" fill="#FF5008"></path><path d="M5.05997 8.46998L4.52497 9.66498C4.42997 9.88498 4.50996 10.085 4.67997 10.22L5.38497 8.63998V7.73998L5.05997 8.46998Z" fill="#FF5008"></path></g><defs><clipPath id="clip0_301_17850"><rect width="16" height="16" fill="white"></rect></clipPath></defs>
</svg>