<svg width="16" height="16" viewBox="0 0 16 16" fill="none" xmlns="http://www.w3.org/2000/svg">
    <path d="M15.285 6.63185C14.03 4.33541 11.24 2.73648 8 2.73648C4.76 2.73648 1.97 4.33541 0.715 6.63185H0V9.36827C0 13.0329 3.58 16.0001 8 16.0001C12.42 16.0001 16 13.0329 16 9.36827V6.63185H15.285Z" fill="#A55E20"/>
    <path d="M8 13.2636C12.4183 13.2636 16 10.2945 16 6.63185C16 2.96921 12.4183 6.10352e-05 8 6.10352e-05C3.58172 6.10352e-05 0 2.96921 0 6.63185C0 10.2945 3.58172 13.2636 8 13.2636Z" fill="#F9A056"/>
    <path d="M14.015 6.63185C14.015 6.81964 14 6.99671 13.98 7.17377C13.655 4.6788 11.1 2.73648 8.005 2.73648C4.91 2.73648 2.355 4.6788 2.03 7.17377C2.005 6.99671 1.995 6.81428 1.995 6.63185C1.995 3.87934 4.685 1.64728 8.01 1.64728C11.335 1.64728 14.025 3.87934 14.025 6.63185H14.015Z" fill="#A55E20"/>
    <path d="M7.97 9.71703C7.45 9.71703 6.985 9.64191 6.58 9.49168C6.175 9.34144 5.86 9.13755 5.625 8.87464C5.39 8.61173 5.28 8.31126 5.275 7.96787H7.085C7.085 8.07518 7.125 8.16639 7.205 8.25224C7.28 8.33272 7.385 8.40248 7.52 8.4454C7.655 8.49369 7.805 8.51515 7.98 8.51515C8.155 8.51515 8.295 8.48832 8.42 8.44003C8.55 8.39174 8.645 8.32199 8.72 8.23615C8.795 8.1503 8.825 8.04835 8.825 7.93567C8.825 7.823 8.785 7.72642 8.705 7.64057C8.62 7.55472 8.505 7.48497 8.355 7.43668C8.205 7.38839 8.035 7.36156 7.84 7.36156H7.165V6.33138H7.84C8.02 6.33138 8.175 6.30455 8.315 6.25626C8.455 6.20797 8.56 6.13822 8.635 6.05237C8.71 5.96653 8.75 5.86995 8.745 5.75727C8.745 5.64996 8.715 5.55338 8.65 5.4729C8.585 5.39242 8.495 5.32803 8.38 5.27974C8.265 5.23145 8.13 5.20999 7.98 5.20999C7.815 5.20999 7.67 5.23681 7.54 5.2851C7.41 5.33339 7.31 5.40315 7.235 5.48899C7.16 5.57484 7.125 5.67142 7.12 5.7841H5.4C5.4 5.44607 5.515 5.15097 5.735 4.89342C5.955 4.63588 6.26 4.43199 6.645 4.28712C7.03 4.14225 7.475 4.06713 7.975 4.06713C8.475 4.06713 8.9 4.13688 9.275 4.27639C9.65 4.41589 9.945 4.60368 10.16 4.84513C10.375 5.08658 10.475 5.36022 10.475 5.67142C10.475 5.97726 10.35 6.22944 10.095 6.42796C9.835 6.62649 9.51 6.73916 9.115 6.77672V6.81964C9.65 6.86793 10.055 7.00207 10.32 7.22743C10.59 7.45278 10.725 7.73178 10.72 8.06445C10.72 8.38638 10.605 8.67075 10.37 8.92293C10.135 9.16975 9.81 9.36827 9.395 9.50777C8.98 9.64728 8.5 9.72239 7.96 9.72239L7.97 9.71703Z" fill="#A55E20"/>
</svg>