<svg width="16" height="16" viewBox="0 0 16 16" fill="none" xmlns="http://www.w3.org/2000/svg">
  <path d="M15.285 6.63185C14.03 4.33541 11.24 2.73648 8 2.73648C4.76 2.73648 1.97 4.33541 0.715 6.63185H0V9.36827C0 13.0329 3.58 16.0001 8 16.0001C12.42 16.0001 16 13.0329 16 9.36827V6.63185H15.285Z" fill="#646B61"/>
  <path d="M16 6.63185C16 10.2965 12.42 13.2636 8 13.2636C3.58 13.2636 0 10.2965 0 6.63185C0 4.74855 0.95 3.04768 2.47 1.8458C3.905 0.702945 5.855 6.10352e-05 8 6.10352e-05C10.145 6.10352e-05 12.095 0.702945 13.53 1.8458C15.05 3.05305 16 4.74855 16 6.63722V6.63185Z" fill="#BABABA"/>
  <path d="M14.015 6.63185C14.015 6.81964 14 6.99671 13.98 7.17377C13.655 4.6788 11.1 2.73648 8.005 2.73648C4.91 2.73648 2.355 4.6788 2.03 7.17377C2.005 6.99671 1.995 6.81428 1.995 6.63185C1.995 3.87934 4.685 1.64728 8.01 1.64728C11.335 1.64728 14.025 3.87934 14.025 6.63185H14.015Z" fill="#646B61"/>
  <path d="M8.02 8.48832V8.45613L8.64 8.02689C9.145 7.67813 9.535 7.37766 9.81 7.12548C10.085 6.8733 10.275 6.64258 10.38 6.43333C10.485 6.22407 10.54 6.01482 10.54 5.80556C10.54 5.46217 10.435 5.16706 10.22 4.90952C10.01 4.65734 9.705 4.45881 9.315 4.31931C8.925 4.17981 8.465 4.11005 7.935 4.11005C7.405 4.11005 6.975 4.18517 6.59 4.34077C6.21 4.49101 5.915 4.70563 5.705 4.98464C5.495 5.26364 5.39 5.5963 5.39 5.98262H7.1C7.1 5.82702 7.135 5.69825 7.205 5.59094C7.275 5.48363 7.37 5.40315 7.495 5.34413C7.625 5.29047 7.77 5.26364 7.935 5.26364C8.1 5.26364 8.245 5.29047 8.375 5.34413C8.505 5.39778 8.605 5.4729 8.675 5.57484C8.745 5.67679 8.785 5.79483 8.785 5.9397C8.785 6.06847 8.755 6.18651 8.69 6.28846C8.625 6.39577 8.535 6.49771 8.42 6.59429C8.3 6.69624 8.16 6.79818 7.995 6.91086L5.52 8.60636V9.68484H10.61V8.48832H8.02Z" fill="#646B61"/>
</svg>
