<svg width="16" height="16" viewBox="0 0 16 16" fill="none" xmlns="http://www.w3.org/2000/svg">
    <g clip-path="url(#clip0_301_17852)"><path d="M15.9999 8.07498V5.68998H9.80992L9.15992 4.23498C8.79492 3.41498 7.19992 3.41498 6.83492 4.23498L6.18492 5.68498H-8.05191e-05V8.07498C-0.0100805 8.34497 0.144919 8.61998 0.504919 8.80998L3.97492 10.64L3.87492 10.86L2.58492 11.525V13.875C2.56992 14.56 3.67492 15.045 4.52492 14.6L7.99492 12.77L11.4649 14.6C12.3149 15.05 13.4199 14.565 13.4049 13.875V11.49L12.0399 10.69L12.0149 10.64L15.4849 8.80998C15.8449 8.61998 15.9999 8.34497 15.9899 8.07498H15.9999Z" fill="#33B204"></path><path d="M9.15992 1.83998L10.4849 4.80498H14.7749C15.9599 4.80498 16.4499 5.90498 15.4949 6.41498L12.0249 8.24498L13.3499 11.21C13.7149 12.03 12.4249 12.71 11.4699 12.205L7.99992 10.375L4.52992 12.205C3.56992 12.71 2.28492 12.03 2.64992 11.21L3.97492 8.24498L0.50492 6.41498C-0.45508 5.90998 0.0399196 4.80498 1.22492 4.80498H5.51492L6.83992 1.83998C7.20492 1.01998 8.79992 1.01998 9.16492 1.83998H9.15992Z" fill="#53F918"></path><path d="M12.8999 6.52998C12.7699 6.45498 12.5999 6.40498 12.3999 6.40498H9.61992L8.75992 4.47998C8.52492 3.94998 7.48992 3.94998 7.24992 4.47998L6.38992 6.40498H3.60492C3.40492 6.40498 3.23492 6.45498 3.10492 6.53498C2.52492 6.19998 2.84992 5.50998 3.60492 5.50998H6.38992L7.24992 3.57998C7.48492 3.04998 8.51992 3.04998 8.75992 3.57998L9.61992 5.50998H12.3999C13.1599 5.50998 13.4799 6.19998 12.8999 6.52998Z" fill="#33B204"></path><path d="M11.4749 9.66498L10.9399 8.46998L10.6099 7.74498V8.64498L11.3149 10.225C11.4849 10.09 11.5649 9.88998 11.4699 9.66998L11.4749 9.66498Z" fill="#33B204"></path><path d="M5.05992 8.46998L4.52492 9.66498C4.42992 9.88498 4.50992 10.085 4.67992 10.22L5.38492 8.63998V7.73998L5.05992 8.46998Z" fill="#33B204"></path></g><defs><clipPath id="clip0_301_17852"><rect width="16" height="16" fill="white"></rect></clipPath></defs>
</svg>