<svg width="16" height="16" viewBox="0 0 16 16" fill="none" xmlns="http://www.w3.org/2000/svg">
    <g id="surface1"><path style="stroke:none;fill-rule:nonzero;fill:rgb(100%,31.372549%,3.137255%);fill-opacity:1;" d="M 8 9.148438 L 8 6.625 L 0.484375 3.355469 L 0.484375 6.34375 L 1.148438 6.636719 L 1.148438 12.730469 L 8 16 Z M 8 9.148438 "></path><path style="stroke:none;fill-rule:nonzero;fill:rgb(100%,31.372549%,3.137255%);fill-opacity:1;" d="M 1.148438 6.636719 L 1.148438 7.703125 L 2.640625 8.363281 L 3.554688 8.769531 L 8 10.753906 L 8 9.636719 Z M 1.148438 6.636719 "></path><path style="stroke:none;fill-rule:nonzero;fill:rgb(100%,78.431373%,0%);fill-opacity:1;" d="M 15.515625 3.359375 L 15.515625 6.34375 L 14.851562 6.636719 L 14.851562 12.730469 L 12.703125 13.753906 L 8 16 L 8 6.710938 L 4.816406 5.289062 L 3.296875 4.609375 L 0.484375 3.359375 L 3.671875 1.933594 L 5.144531 1.273438 L 8 0 L 10.855469 1.273438 L 12.328125 1.933594 Z M 15.515625 3.359375 "></path><path style="stroke:none;fill-rule:nonzero;fill:rgb(100%,31.372549%,3.137255%);fill-opacity:1;" d="M 8 9.613281 L 8 10.734375 L 10.585938 9.59375 L 11.398438 9.230469 L 14.851562 7.703125 L 14.851562 6.636719 Z M 8 9.613281 "></path><path style="stroke:none;fill-rule:nonzero;fill:rgb(100%,31.372549%,3.137255%);fill-opacity:1;" d="M 8 12.941406 C 10.726562 12.941406 12.941406 10.726562 12.941406 8 C 12.941406 5.273438 10.726562 3.058594 8 3.058594 C 5.273438 3.058594 3.058594 5.273438 3.058594 8 C 3.058594 10.726562 5.273438 12.941406 8 12.941406 Z M 8 12.941406 "></path><path style="stroke:none;fill-rule:nonzero;fill:rgb(100%,78.431373%,0%);fill-opacity:1;" d="M 9.199219 4.671875 L 9.199219 11.515625 L 7.339844 11.515625 L 7.339844 6.378906 L 7.300781 6.378906 L 5.800781 7.273438 L 5.800781 5.695312 L 7.484375 4.664062 L 9.195312 4.664062 Z M 9.199219 4.671875 "></path></g>
</svg>