<svg width="16" height="16" viewBox="0 0 16 16" fill="none" xmlns="http://www.w3.org/2000/svg">
    <g clip-path="url(#clip0_301_17815)"><path d="M8.02501 9.14999V6.62499L0.51001 3.35999V6.34499L1.17501 6.63499V12.73L8.02501 15.995V9.14999Z" fill="#7B1BAB"></path><path d="M8.02505 10.735V9.61501L1.17505 6.63501V7.70501L8.02505 10.735Z" fill="#7B1BAB"></path><path d="M15.535 3.355V6.345L14.87 6.64V12.73L12.725 13.755L11.21 14.48L8.02501 15.995V6.715L4.84001 5.295H4.83501L3.32001 4.61L0.51001 3.355L3.69001 1.935L3.70501 1.93L5.11501 1.3L8.02501 0L10.93 1.3L12.34 1.925L12.355 1.935L15.535 3.355Z" fill="#A947D3"></path><path d="M14.87 6.63501V7.70501L8.02502 10.735V9.61501L14.87 6.63501Z" fill="#7B1BAB"></path></g><defs><clipPath id="clip0_301_17815"><rect width="16" height="16" fill="white"></rect></clipPath></defs>
</svg>