<svg width="16" height="16" viewBox="0 0 16 16" fill="none" xmlns="http://www.w3.org/2000/svg">
    <g clip-path="url(#clip0_301_17825)"><path d="M7.99999 9.14999V6.62499L0.484985 3.35999V6.34499L1.14999 6.63999V12.73L7.99999 16V9.14999Z" fill="#FF5008"></path><path d="M8.00002 10.74V9.61501L1.15002 6.64001V7.71001L8.00002 10.74Z" fill="#FF5008"></path><path d="M15.515 3.355V6.345L14.85 6.64V12.73L12.705 13.755L11.185 14.48L8.00499 15.995V6.715L4.81999 5.295H4.81499L3.29499 4.61L0.484985 3.355L3.66999 1.935L3.67999 1.93L5.09499 1.3L8.00499 0L10.905 1.3L12.32 1.925L12.33 1.935L15.515 3.355Z" fill="#FFC800"></path><path d="M14.85 6.64001V7.71001L8 10.74V9.61501L14.85 6.64001Z" fill="#FF5008"></path></g><defs><clipPath id="clip0_301_17825"><rect width="16" height="16" fill="white"></rect></clipPath></defs>
</svg>