<svg width="16" height="16" viewBox="0 0 16 16" fill="none" xmlns="http://www.w3.org/2000/svg">
    <g id="surface1"><path style="stroke:none;fill-rule:nonzero;fill:rgb(64.705882%,36.862745%,12.54902%);fill-opacity:1;" d="M 8 9.148438 L 8 6.625 L 0.484375 3.355469 L 0.484375 6.34375 L 1.148438 6.636719 L 1.148438 12.730469 L 8 16 Z M 8 9.148438 "></path><path style="stroke:none;fill-rule:nonzero;fill:rgb(64.705882%,36.862745%,12.54902%);fill-opacity:1;" d="M 1.148438 6.636719 L 1.148438 7.703125 L 2.640625 8.363281 L 3.554688 8.769531 L 8 10.753906 L 8 9.636719 Z M 1.148438 6.636719 "></path><path style="stroke:none;fill-rule:nonzero;fill:rgb(97.647059%,62.745098%,33.72549%);fill-opacity:1;" d="M 15.515625 3.359375 L 15.515625 6.34375 L 14.851562 6.636719 L 14.851562 12.730469 L 12.703125 13.753906 L 8.003906 16 L 8.003906 6.710938 L 4.820312 5.289062 L 3.296875 4.609375 L 0.484375 3.359375 L 3.671875 1.933594 L 3.675781 1.933594 L 5.148438 1.273438 L 8.003906 0 L 10.855469 1.273438 L 12.324219 1.929688 L 12.328125 1.933594 Z M 15.515625 3.359375 "></path><path style="stroke:none;fill-rule:nonzero;fill:rgb(64.705882%,36.862745%,12.54902%);fill-opacity:1;" d="M 8 9.613281 L 8 10.734375 L 10.585938 9.59375 L 11.40625 9.230469 L 14.851562 7.703125 L 14.851562 6.636719 Z M 8 9.613281 "></path><path style="stroke:none;fill-rule:nonzero;fill:rgb(64.705882%,36.862745%,12.54902%);fill-opacity:1;" d="M 8 12.941406 C 10.726562 12.941406 12.941406 10.726562 12.941406 8 C 12.941406 5.273438 10.726562 3.058594 8 3.058594 C 5.273438 3.058594 3.058594 5.273438 3.058594 8 C 3.058594 10.726562 5.273438 12.941406 8 12.941406 Z M 8 12.941406 "></path><path style="stroke:none;fill-rule:nonzero;fill:rgb(97.647059%,62.745098%,33.72549%);fill-opacity:1;" d="M 7.964844 11.515625 C 7.425781 11.515625 6.949219 11.421875 6.53125 11.234375 C 6.109375 11.050781 5.785156 10.789062 5.546875 10.464844 C 5.304688 10.140625 5.183594 9.761719 5.183594 9.335938 L 7.054688 9.335938 C 7.054688 9.464844 7.101562 9.585938 7.179688 9.691406 C 7.261719 9.796875 7.371094 9.875 7.503906 9.929688 C 7.644531 9.988281 7.800781 10.015625 7.980469 10.015625 C 8.160156 10.015625 8.304688 9.984375 8.433594 9.925781 C 8.566406 9.863281 8.671875 9.78125 8.746094 9.671875 C 8.820312 9.558594 8.855469 9.433594 8.851562 9.296875 C 8.851562 9.15625 8.808594 9.035156 8.726562 8.925781 C 8.640625 8.820312 8.519531 8.734375 8.363281 8.675781 C 8.210938 8.613281 8.035156 8.585938 7.835938 8.585938 L 7.140625 8.585938 L 7.140625 7.300781 L 7.835938 7.300781 C 8.019531 7.300781 8.183594 7.269531 8.324219 7.210938 C 8.464844 7.148438 8.574219 7.066406 8.65625 6.960938 C 8.734375 6.855469 8.769531 6.730469 8.769531 6.589844 C 8.769531 6.453125 8.738281 6.339844 8.675781 6.234375 C 8.609375 6.128906 8.515625 6.050781 8.394531 5.996094 C 8.273438 5.933594 8.140625 5.910156 7.980469 5.910156 C 7.808594 5.910156 7.660156 5.941406 7.523438 6 C 7.390625 6.058594 7.289062 6.144531 7.210938 6.25 C 7.136719 6.355469 7.09375 6.480469 7.09375 6.621094 L 5.316406 6.621094 C 5.316406 6.199219 5.433594 5.828125 5.660156 5.511719 C 5.886719 5.191406 6.199219 4.933594 6.601562 4.753906 C 7 4.570312 7.453125 4.480469 7.976562 4.480469 C 8.496094 4.480469 8.929688 4.566406 9.316406 4.734375 C 9.703125 4.90625 10.011719 5.144531 10.226562 5.441406 C 10.445312 5.738281 10.554688 6.078125 10.550781 6.46875 C 10.550781 6.855469 10.425781 7.171875 10.15625 7.414062 C 9.890625 7.660156 9.550781 7.804688 9.144531 7.851562 L 9.144531 7.90625 C 9.695312 7.964844 10.113281 8.136719 10.390625 8.410156 C 10.671875 8.683594 10.804688 9.035156 10.800781 9.453125 C 10.800781 9.855469 10.683594 10.210938 10.441406 10.519531 C 10.199219 10.828125 9.863281 11.074219 9.433594 11.25 C 9.003906 11.425781 8.511719 11.515625 7.949219 11.515625 Z M 7.964844 11.515625 "></path></g>
</svg>