<svg width="16" height="16" viewBox="0 0 16 16" fill="none" xmlns="http://www.w3.org/2000/svg">
    <g id="surface1"><path style="stroke:none;fill-rule:nonzero;fill:rgb(39.215686%,41.960784%,38.039216%);fill-opacity:1;" d="M 8 9.148438 L 8 6.625 L 0.484375 3.355469 L 0.484375 6.34375 L 1.148438 6.636719 L 1.148438 12.730469 L 8 16 Z M 8 9.148438 "></path><path style="stroke:none;fill-rule:nonzero;fill:rgb(39.215686%,41.960784%,38.039216%);fill-opacity:1;" d="M 1.148438 6.636719 L 1.148438 7.703125 L 2.640625 8.363281 L 3.554688 8.769531 L 7.835938 10.554688 L 7.835938 9.433594 Z M 1.148438 6.636719 "></path><path style="stroke:none;fill-rule:nonzero;fill:rgb(72.941176%,72.941176%,72.941176%);fill-opacity:1;" d="M 15.515625 3.359375 L 15.515625 6.34375 L 14.851562 6.636719 L 14.851562 12.730469 L 12.703125 13.753906 L 11.183594 14.476562 L 8 16 L 8 6.710938 L 4.816406 5.289062 L 3.296875 4.609375 L 0.484375 3.359375 L 3.671875 1.933594 L 3.675781 1.929688 L 5.144531 1.273438 L 8 0 L 10.851562 1.273438 L 12.324219 1.933594 L 12.328125 1.933594 Z M 15.515625 3.359375 "></path><path style="stroke:none;fill-rule:nonzero;fill:rgb(39.215686%,41.960784%,38.039216%);fill-opacity:1;" d="M 8 9.613281 L 8 10.734375 L 10.585938 9.59375 L 11.398438 9.230469 L 14.851562 7.703125 L 14.851562 6.636719 Z M 8 9.613281 "></path><path style="stroke:none;fill-rule:nonzero;fill:rgb(39.215686%,41.960784%,38.039216%);fill-opacity:1;" d="M 8 12.941406 C 10.726562 12.941406 12.941406 10.726562 12.941406 8 C 12.941406 5.273438 10.726562 3.058594 8 3.058594 C 5.273438 3.058594 3.058594 5.273438 3.058594 8 C 3.058594 10.726562 5.273438 12.941406 8 12.941406 Z M 8 12.941406 "></path><path style="stroke:none;fill-rule:nonzero;fill:rgb(72.941176%,72.941176%,72.941176%);fill-opacity:1;" d="M 5.441406 11.183594 L 5.441406 9.851562 L 7.996094 7.734375 C 8.164062 7.59375 8.308594 7.464844 8.429688 7.339844 C 8.550781 7.214844 8.644531 7.089844 8.710938 6.953125 C 8.773438 6.820312 8.808594 6.679688 8.808594 6.515625 C 8.808594 6.339844 8.769531 6.191406 8.699219 6.066406 C 8.625 5.941406 8.519531 5.84375 8.390625 5.773438 C 8.261719 5.703125 8.105469 5.675781 7.933594 5.675781 C 7.765625 5.675781 7.609375 5.710938 7.480469 5.78125 C 7.351562 5.851562 7.25 5.949219 7.179688 6.085938 C 7.109375 6.21875 7.074219 6.378906 7.074219 6.574219 L 5.308594 6.574219 C 5.308594 6.09375 5.421875 5.679688 5.636719 5.328125 C 5.851562 4.980469 6.15625 4.714844 6.550781 4.53125 C 6.945312 4.34375 7.40625 4.25 7.933594 4.25 C 8.464844 4.25 8.960938 4.339844 9.359375 4.511719 C 9.761719 4.683594 10.074219 4.929688 10.289062 5.246094 C 10.511719 5.558594 10.621094 5.933594 10.621094 6.359375 C 10.621094 6.625 10.566406 6.886719 10.453125 7.144531 C 10.34375 7.40625 10.148438 7.691406 9.863281 8.003906 C 9.578125 8.320312 9.179688 8.695312 8.660156 9.128906 L 8.019531 9.664062 L 8.019531 9.703125 L 10.695312 9.703125 L 10.695312 11.191406 L 5.441406 11.191406 Z M 5.441406 11.183594 "></path></g>
</svg>