<svg xmlns="http://www.w3.org/2000/svg" width="1em" height="1em" viewBox="0 0 24 24">
	<g fill="none" stroke="currentColor" stroke-width="1.5">
		<path d="M12 10H18C19.1046 10 20 10.8954 20 12V21H12" />
		<path d="M12 21H4V12C4 10.8954 4.89543 10 6 10H12" />
		<path stroke-linecap="round" stroke-linejoin="round" d="M12 10V8" />
		<path d="M4 16H5C7 16 8.5 14 8.5 14C8.5 14 10 16 12 16C14 16 15.5 14 15.5 14C15.5 14 17 16 19 16H20" />
	</g>
	<path fill="currentColor" d="M14 4C14 5.10457 13.1046 6 12 6C10.8954 6 10 5.10457 10 4C10 2.89543 12 0 12 0C12 0 14 2.89543 14 4Z" />
</svg>