<svg
   width="32"
   height="32"
   viewBox="0 0 16 16"
   version="1.1"
   xml:space="preserve"
   xmlns="http://www.w3.org/2000/svg"
   xmlns:svg="http://www.w3.org/2000/svg"><path
     style="opacity:1;fill:#ff3e64;fill-opacity:1;fill-rule:nonzero;stroke-width:0.023423"
     d="M 0.0045448,15.994522 0.00653212,7.0100931 C 0.00268662,6.4657282 0.56985346,5.2666906 1.6344369,4.714763 2.2713742,4.3845464 2.837577,4.2734929 3.8954568,4.2515817 4.9164087,4.2304326 5.4269836,4.4338648 5.61042,4.5236104 6.1140039,4.7499277 6.6375815,5.2244865 6.7816227,5.4288944 l 4.5552313,6.6637346 c 0.270458,0.343536 0.601629,0.565661 0.949354,0.529787 0.293913,-0.02339 0.449771,-0.268141 0.45106,-0.491161 l 0.0031,-9.2329087 -12.73699293,6.478e-4 4.453e-5,-2.8976667 15.9946434,2.145e-4 -1.11e-4,13.0844041 c -0.0057,0.149032 -0.09913,1.190976 -1.067016,2.026055 -0.866438,0.807769 -2.342194,0.87905 -2.342194,0.87905 -0.620946,0.0088 -1.091187,0.02361 -1.441943,-0.04695 -0.581657,-0.148437 -0.833883,-0.27401 -1.315459,-0.607888 -0.4222398,-0.311805 -0.7037358,-0.678791 -0.9410734,-0.987827 0,0 -1.1204546,-1.801726 -1.931821,-2.982711 C 6.3363366,10.413177 5.2823578,8.9426183 4.7672147,8.2745095 4.375011,7.7288473 4.102008,7.6101039 3.9558506,7.5598495 3.7999133,7.5101456 3.6283732,7.55479 3.4962961,7.6097361 3.3794655,7.6629412 3.2800176,7.7609522 3.2623448,7.8936439 l 7.879e-4,8.1018591 z"/></svg>