<svg
   width="32"
   height="32"
   viewBox="0 0 16 16"
   version="1.1"
   xml:space="preserve"
   xmlns="http://www.w3.org/2000/svg"
   xmlns:svg="http://www.w3.org/2000/svg"><path
     style="opacity:1;fill:#ff3e64;fill-opacity:1;fill-rule:nonzero;stroke-width:0.0177286"
     d="m 1.9484971,14.050971 0.00151,-6.8002221 C 1.9470906,6.8387247 2.3763735,5.9311853 3.1821459,5.5134369 3.6642372,5.2634994 4.0927902,5.1794441 4.8934888,5.1628598 c 0.772748,-0.016008 1.159197,0.1379681 1.298038,0.2058957 0.3811575,0.1712973 0.7774481,0.530486 0.8864715,0.6852003 l 3.4478087,5.0437122 c 0.204707,0.260019 0.455366,0.428143 0.718557,0.400992 0.222458,-0.0177 0.340425,-0.202956 0.341401,-0.371756 L 11.588065,4.1386098 1.9475638,4.1391 1.9475976,1.9458856 14.05378,1.946048 14.053696,11.8495 c -0.0042,0.112801 -0.07503,0.901437 -0.807613,1.533501 -0.655798,0.611391 -1.772784,0.665344 -1.772784,0.665344 -0.469987,0.0067 -0.825908,0.01787 -1.091391,-0.03553 C 9.9416391,13.90046 9.7507319,13.805415 9.386232,13.552705 9.0666431,13.316704 8.8535815,13.038937 8.6739431,12.80503 c 0,0 -0.8480608,-1.363708 -1.4621756,-2.257583 C 6.7409658,9.8265088 5.94322,8.7134576 5.5533134,8.2077728 5.2564583,7.7947667 5.0498252,7.704891 4.9392001,7.6668539 4.8211728,7.6292335 4.6913357,7.6630245 4.591368,7.7046125 4.5029401,7.744883 4.4276689,7.8190666 4.4142927,7.9194995 l 5.964e-4,6.1322155 z"/></svg>
