<svg
   width="32"
   height="32"
   viewBox="0 0 16 16"
   version="1.1"
   xml:space="preserve"
   xmlns="http://www.w3.org/2000/svg"
   xmlns:svg="http://www.w3.org/2000/svg"><path
     style="opacity:1;fill:#ff3e64;fill-opacity:1;fill-rule:nonzero;stroke-width:0.0220638"
     d="M 0.4685353,15.530627 0.4704073,7.0675343 C 0.46678494,6.554757 1.001041,5.4252955 2.0038503,4.9053944 2.6038282,4.5943392 3.1371762,4.4897297 4.1336708,4.46909 5.0953803,4.4491681 5.5763283,4.6407957 5.7491204,4.7253337 6.2234831,4.9385186 6.7166793,5.3855404 6.8523622,5.5780871 l 4.2909068,6.2770609 c 0.254764,0.323601 0.566718,0.532838 0.894266,0.499045 0.276858,-0.02203 0.423672,-0.252582 0.424886,-0.46266 l 0.0029,-8.6971548 -11.9979083,6.102e-4 4.195e-5,-2.72952483 15.06655135,2.0206e-4 -1.05e-4,12.32516037 c -0.0054,0.140384 -0.09338,1.121868 -1.005101,1.90849 -0.816161,0.760896 -2.206284,0.828041 -2.206284,0.828041 -0.584915,0.0083 -1.02787,0.02224 -1.358272,-0.04422 C 10.416338,15.343312 10.178748,15.225026 9.7251166,14.910522 9.3273779,14.61681 9.0622162,14.271119 8.8386505,13.980016 c 0,0 -1.0554385,-1.697179 -1.819724,-2.809635 C 6.4329145,10.273148 5.4400946,8.8879215 4.9548435,8.2585808 4.5853981,7.7445815 4.3282365,7.6327284 4.1905601,7.5853901 4.0436714,7.5385703 3.8820851,7.5806242 3.757672,7.632382 3.6476207,7.6824997 3.5539434,7.7748235 3.5372962,7.8998155 l 7.421e-4,7.6317355 z"/></svg>
