<?xml version="1.0" encoding="UTF-8" standalone="no"?>
<svg
   width="32"
   height="32"
   viewBox="0 0 16 16"
   version="1.1"
   xml:space="preserve"
   id="svg1"
   sodipodi:docname="NTV_logo_padded_3.svg"
   inkscape:export-filename="NTV_badge.svg"
   inkscape:export-xdpi="48"
   inkscape:export-ydpi="48"
   inkscape:version="1.4 (86a8ad7, 2024-10-11)"
   xmlns:inkscape="http://www.inkscape.org/namespaces/inkscape"
   xmlns:sodipodi="http://sodipodi.sourceforge.net/DTD/sodipodi-0.dtd"
   xmlns="http://www.w3.org/2000/svg"
   xmlns:svg="http://www.w3.org/2000/svg"><defs
     id="defs1" /><sodipodi:namedview
     id="namedview1"
     pagecolor="#ffffff"
     bordercolor="#000000"
     borderopacity="0.25"
     inkscape:showpageshadow="2"
     inkscape:pageopacity="0.0"
     inkscape:pagecheckerboard="0"
     inkscape:deskcolor="#d1d1d1"
     inkscape:zoom="26.185048"
     inkscape:cx="15.333178"
     inkscape:cy="12.621707"
     inkscape:window-width="1598"
     inkscape:window-height="1339"
     inkscape:window-x="870"
     inkscape:window-y="19"
     inkscape:window-maximized="0"
     inkscape:current-layer="svg1" /><path
     style="opacity:1;fill:#ff3e64;fill-opacity:1;fill-rule:nonzero;stroke-width:0.0213617"
     d="m 0.70822498,15.290987 0.001812,-7.8292114 C 0.70653032,6.965316 1.2237852,5.8717964 2.194683,5.3684396 2.7755683,5.0672828 3.2919441,4.9660023 4.2567281,4.9460193 5.1878339,4.9267313 5.6534771,5.112261 5.8207707,5.1941088 6.2800381,5.4005097 6.7575397,5.8333063 6.888905,6.0197258 l 4.116172,5.7127422 c 0.246656,0.313304 0.472304,0.515883 0.789429,0.483165 0.268048,-0.02132 0.391095,-0.244543 0.39227,-0.447937 l 0.0028,-8.1313972 -11.48244477,5.907e-4 4.061e-5,-2.93166096 14.58710216,1.9564e-4 -1.02e-4,11.93294882 c -0.0053,0.135916 -0.09041,1.086166 -0.973117,1.847756 -0.790189,0.736683 -2.136076,0.801691 -2.136076,0.801691 -0.566301,0.0081 -0.99516,0.02153 -1.315048,-0.04282 -0.53047,-0.135372 -0.7605,-0.249894 -1.1996957,-0.554391 -0.3850818,-0.284365 -0.6418055,-0.56177 -0.8582569,-0.84361 0,0 -1.0218521,-1.278603 -1.7618165,-2.355658 C 6.4828049,10.622664 5.5215787,9.3197084 5.0517693,8.7103949 4.6940804,8.212752 4.4451023,8.1044584 4.311807,8.0586264 4.1695927,8.0132966 4.0131483,8.0540122 3.8926944,8.1041229 3.7861451,8.1526458 3.6954488,8.2420316 3.6793314,8.3630461 l 7.185e-4,6.9288349 z"
     id="path1"
     sodipodi:nodetypes="ccsccccccccccccccccccccccc" /></svg>
