<?xml version="1.0" standalone="no"?>
<!DOCTYPE svg PUBLIC "-//W3C//DTD SVG 20010904//EN"
 "http://www.w3.org/TR/2001/REC-SVG-20010904/DTD/svg10.dtd">
<svg version="1.0" xmlns="http://www.w3.org/2000/svg"
 width="512.000000pt" height="512.000000pt" viewBox="0 0 512.000000 512.000000"
 preserveAspectRatio="xMidYMid meet">
<g transform="translate(0.000000,512.000000) scale(0.100000,-0.100000)"
fill="#000000" stroke="none">
<path d="M0 4665 l0 -455 2040 0 2040 0 0 -1497 c0 -1437 -1 -1500 -19 -1539
-33 -71 -112 -112 -191 -99 -54 9 -147 67 -200 124 -52 56 -76 84 -81 97 -2 5
-53 83 -114 172 -60 90 -115 171 -120 180 -6 10 -24 37 -40 61 -17 24 -34 51
-40 60 -30 48 -150 227 -156 231 -3 3 -8 10 -10 15 -2 6 -217 330 -477 720
-418 628 -482 719 -550 784 -146 139 -337 242 -493 266 -24 4 -69 11 -99 15
-61 10 -498 6 -545 -4 -208 -46 -276 -68 -405 -133 -253 -128 -433 -348 -515
-628 l-25 -86 0 -1474 0 -1473 520 0 520 0 0 1324 c0 1151 2 1328 15 1353 18
36 105 81 155 81 54 0 129 -42 206 -118 98 -95 119 -122 379 -497 27 -38 63
-91 82 -117 18 -26 33 -52 33 -57 0 -5 3 -11 8 -13 7 -3 384 -564 391 -583 2
-5 7 -12 10 -15 9 -7 89 -129 166 -255 38 -60 83 -132 100 -160 54 -84 209
-333 228 -367 55 -96 188 -247 302 -341 50 -41 166 -113 230 -142 177 -81 259
-95 530 -90 121 2 229 6 240 8 11 3 41 8 66 11 68 9 194 42 274 73 333 125
564 393 649 753 13 57 15 318 16 2168 l0 2102 -2560 0 -2560 0 0 -455z"/>
</g>
</svg>
